<?xml version="1.0" encoding="UTF-8" standalone="no"?>
<!-- Created with Inkscape (http://www.inkscape.org/) -->

<svg
   width="399.99979"
   height="30.263435"
   viewBox="0 0 105.83328 8.0071994"
   version="1.1"
   id="svg5"
   inkscape:version="1.4 (e7c3feb, 2024-10-09)"
   sodipodi:docname="resources.svg"
   inkscape:export-filename="arrow_seconds.png"
   inkscape:export-xdpi="96"
   inkscape:export-ydpi="96"
   xml:space="preserve"
   xmlns:inkscape="http://www.inkscape.org/namespaces/inkscape"
   xmlns:sodipodi="http://sodipodi.sourceforge.net/DTD/sodipodi-0.dtd"
   xmlns="http://www.w3.org/2000/svg"
   xmlns:svg="http://www.w3.org/2000/svg"><sodipodi:namedview
     id="namedview7"
     pagecolor="#ffffff"
     bordercolor="#666666"
     borderopacity="1.0"
     inkscape:pageshadow="2"
     inkscape:pageopacity="0.0"
     inkscape:pagecheckerboard="0"
     inkscape:document-units="px"
     showgrid="false"
     units="px"
     inkscape:zoom="0.70710678"
     inkscape:cx="115.96551"
     inkscape:cy="-113.13708"
     inkscape:window-width="1680"
     inkscape:window-height="978"
     inkscape:window-x="0"
     inkscape:window-y="0"
     inkscape:window-maximized="1"
     inkscape:current-layer="layer1"
     inkscape:showpageshadow="2"
     inkscape:deskcolor="#d1d1d1"
     inkscape:export-bgcolor="#ffffff00" /><defs
     id="defs2"><filter
       inkscape:label="Monochrome Transparency"
       inkscape:menu="Fill and Transparency"
       inkscape:menu-tooltip="Convert to a colorizable transparent positive or negative"
       style="color-interpolation-filters:sRGB"
       id="filter12086"
       x="0"
       y="0"
       width="1"
       height="1"><feColorMatrix
         type="luminanceToAlpha"
         result="fbSourceGraphic"
         id="feColorMatrix12078" /><feFlood
         flood-color="rgb(134,39,24)"
         result="result1"
         flood-opacity="1"
         id="feFlood12080" /><feComposite
         operator="out"
         in2="fbSourceGraphic"
         result="result2"
         id="feComposite12082" /><feComposite
         operator="in"
         in2="SourceGraphic"
         id="feComposite12084" /></filter></defs><g
     inkscape:label="Слой 1"
     inkscape:groupmode="layer"
     id="layer1"
     transform="translate(-124.84098,144.33157)"><path
       id="path1"
       style="fill:#f2f2f2;stroke-width:0.132619"
       d="m 165.72658,-158.17036 -1.72703,5.1e-4 c 1.04851,0.68519 1.70963,2.06478 1.71359,3.57291 h -35.89806 v 0.0264 h 35.89806 c -0.003,1.50793 -0.6652,2.88728 -1.71359,3.57239 l 1.72703,5.1e-4 v -0.007 c 1.17213,-1.77983 4.52141,1.71755 7.73492,-1.66708 0.39883,-0.45151 0.7657,-0.46443 1.07746,-0.34107 0.38765,0.79118 1.05305,1.41205 1.86913,1.74408 0.3036,0.16032 0.62837,0.24689 0.95705,0.2496 0.0813,0.01 0.16229,0.0176 0.24495,0.0176 0.0157,0 0.0313,-0.003 0.047,-0.003 0.0335,0.003 0.0667,0.005 0.10026,0.007 1.24802,-0.002 2.40536,-0.65249 3.05562,-1.71772 1.65743,-0.18959 4.40077,0.18552 4.40077,0.18552 2.45912,0.49474 4.41891,0.71615 7.45691,-0.01 1.42216,-0.21803 4.18492,-1.28839 5.76812,0.27802 0.48656,0.48135 0.92753,0.87436 0.97978,0.87436 0.0523,0 0.3435,-0.22911 0.64803,-0.51005 1.33883,-1.23524 4.17292,-1.9005 9.46453,-2.22208 0.77436,-0.0467 1.58544,-0.12971 1.58544,-0.12971 v -0.30644 h 0.26303 v -0.0155 h 14.32057 v -0.0264 h -14.32057 v -0.015 h -0.26303 v -0.30645 c 0,0 -0.81108,-0.0831 -1.58544,-0.1297 -5.29161,-0.32159 -8.1257,-0.98736 -9.46453,-2.22261 -0.30453,-0.28093 -0.59579,-0.50901 -0.64803,-0.50901 -0.0523,0 -0.49322,0.3925 -0.97978,0.87385 -1.5832,1.5664 -4.34596,0.49553 -5.76812,0.2775 -3.038,-0.72607 -4.99779,-0.50408 -7.45691,-0.009 0,0 -2.73704,0.37409 -4.39508,0.18603 -0.65115,-1.06724 -1.81111,-1.71812 -3.06131,-1.71824 -0.0336,0.002 -0.0668,0.004 -0.10026,0.007 -0.0156,-3.6e-4 -0.0313,-0.002 -0.047,-0.002 -0.0827,-9e-5 -0.16366,0.007 -0.24495,0.0176 -0.32868,0.002 -0.65345,0.0893 -0.95705,0.2496 -0.81594,0.33211 -1.48106,0.95297 -1.86862,1.74408 -0.31182,0.12349 -0.679,0.11007 -1.07797,-0.34158 -3.2135,-3.38462 -6.56278,0.11326 -7.73492,-1.66657 z m 33.69354,2.05724 c 0.52959,0.68955 1.13648,1.21495 1.84744,1.52393 -0.003,0.002 -0.007,0.004 -0.0103,0.006 0.003,0.002 0.007,0.004 0.0103,0.006 -0.71096,0.30899 -1.31785,0.83386 -1.84744,1.52342 -0.50002,-0.59889 -1.09283,-1.12439 -1.8495,-1.52342 0.003,-0.002 0.006,-0.004 0.009,-0.006 -0.003,-0.002 -0.006,-0.003 -0.009,-0.006 0.75667,-0.39902 1.34948,-0.9251 1.8495,-1.52393 z m -10.29032,0.4041 c 2.33829,3e-5 4.23373,0.50366 4.23436,1.125 -5.6e-4,0.62135 -1.89607,1.12497 -4.23436,1.125 -2.33828,-3e-5 -4.2338,-0.50365 -4.23437,-1.125 5.7e-4,-0.62134 1.89609,-1.12497 4.23437,-1.125 z m -11.37243,0.20568 c 0.50788,-1e-5 0.91984,0.41144 0.91984,0.91932 0,0.50789 -0.41195,0.91984 -0.91984,0.91984 -0.50789,0 -0.91933,-0.41195 -0.91933,-0.91984 0,-0.50788 0.41145,-0.91933 0.91933,-0.91932 z" /><path
       id="rect1"
       style="fill:#f9f9f9;stroke-width:0.0470688"
       d="m 158.35025,-173.3239 v 0.003 h -1.20975 c 0.76018,0.94015 1.19367,2.81255 1.19631,4.20336 h -0.002 v -5.2e-4 h -33.49408 v 0.0264 h 33.49408 v -5.2e-4 h 0.002 c -0.002,1.39081 -0.43613,3.26322 -1.19631,4.20336 h 1.20975 v 0.003 c 1.96246,-3.12853 7.69458,-0.22169 11.04325,-0.23254 2.49596,-0.14993 3.17949,-1.82435 4.57801,-2.2841 0.15597,-0.0403 0.30243,-0.0516 0.44339,-0.0512 0.62772,1.27372 1.92296,2.08136 3.34295,2.08411 1.4297,-0.002 2.73312,-0.82014 3.35638,-2.10684 2.4388,-0.81817 7.27285,-0.3484 8.79894,0.076 3.2409,0.90021 6.08219,1.00805 8.61136,0.49713 2.57601,-0.84146 14.19975,-2.80271 17.22583,1.46451 h 0.47542 c 2.33543,-3.07406 8.73761,-3.09176 11.33626,-3.29748 v -0.36845 -0.36897 c -2.59851,-0.20572 -9.00084,-0.22341 -11.33626,-3.29747 h -0.47542 c -3.0263,4.26723 -14.65026,2.30648 -17.22634,1.46502 -2.52917,-0.51091 -5.37047,-0.40308 -8.61136,0.49713 -1.52447,0.42387 -6.35042,0.89308 -8.79171,0.0785 -0.6235,-1.29005 -1.93028,-2.10982 -3.3631,-2.10995 -1.41999,0.003 -2.71523,0.81039 -3.34295,2.08411 -0.141,4.8e-4 -0.28736,-0.0102 -0.44339,-0.0506 -1.39857,-0.45974 -2.08205,-2.13416 -4.57801,-2.2841 -3.34867,-0.0109 -9.08079,2.89599 -11.04325,-0.23254 z m 57.60888,2.33422 c 0.6146,0.85099 1.31807,1.50138 2.1425,1.88412 -0.82443,0.38273 -1.5279,1.03365 -2.1425,1.88464 -0.58047,-0.73925 -1.26805,-1.39132 -2.14561,-1.88464 0.87756,-0.49333 1.56514,-1.14486 2.14561,-1.88412 z m -38.20128,0.63924 c 0.68766,0 1.2454,0.55722 1.2454,1.24488 0,0.68766 -0.55774,1.24541 -1.2454,1.24541 -0.68766,0 -1.24488,-0.55775 -1.24489,-1.24541 0,-0.68766 0.55723,-1.24488 1.24489,-1.24488 z m 17.35501,0.0253 c 2.767,4e-5 5.01016,0.54587 5.01054,1.21956 -5.1e-4,0.6737 -2.24354,1.22004 -5.01054,1.22008 -2.76728,6e-5 -5.01107,-0.54631 -5.01158,-1.22008 5.1e-4,-0.67376 2.2443,-1.21962 5.01158,-1.21956 z m 32.44969,1.20664 v 0.0264 h 3.11196 v -0.0264 z" /><path
       id="path2-5"
       style="fill:#f2f2f2;stroke-width:0.117452"
       d="m 177.72558,-144.28195 c -1.73784,0.001 -3.24617,1.09515 -3.79975,2.66961 l -5.22087,-2.71923 v 3.99872 h -40.412 c -0.0113,-0.10307 -0.0866,-0.18139 -0.19378,-0.18139 -0.0924,0 -0.16824,0.0784 -0.17984,0.18139 h -3.07836 v 0.0263 h 3.07215 c 0.003,0.0955 0.0822,0.17654 0.17622,0.18242 0.003,1.5e-4 0.007,0 0.0103,0 0.1135,0 0.19675,-0.0824 0.19999,-0.18242 h 40.40528 v 3.98218 l 5.2157,-2.71873 c 0.54878,1.58228 2.06076,2.68383 3.80493,2.68562 v -5.1e-4 c 2.04359,-5.3e-4 3.76379,-1.50239 4.00389,-3.49591 l 45.87472,-0.0486 v -0.40411 h 3.07009 v -0.0263 h -3.07009 v -0.42065 l -45.87989,-0.0491 c -0.24771,-1.98516 -1.96268,-3.47738 -3.99872,-3.47938 z m -0.0847,1.9296 c 0.6771,0 1.25164,0.29172 1.63144,0.75551 l -3.1135,-0.009 c 0.36625,-0.45845 0.9019,-0.74673 1.48206,-0.74673 z m -1.80762,1.30121 c 1.69753,0.007 2.93363,0.0135 3.76927,0.015 0.0925,0.24256 0.14624,0.50775 0.14624,0.79168 0,0.21916 -0.0461,0.42738 -0.11679,0.62529 -0.81726,0.001 -2.11666,0.008 -3.82508,0.015 -0.0751,-0.20286 -0.12403,-0.41671 -0.12403,-0.64027 0,-0.28952 0.0553,-0.56032 0.15039,-0.80667 z m 3.48195,1.99316 c -0.37814,0.46419 -0.97167,0.77153 -1.67432,0.77153 -0.59914,0 -1.15157,-0.30612 -1.51773,-0.76274 z"
       sodipodi:nodetypes="cccccscccccscccccccccccccccccccccccsccssccscc" /></g></svg>
